<svg width="13" height="13" viewBox="0 0 13 13" fill="none" xmlns="http://www.w3.org/2000/svg">
<path d="M9.53326 12.2201H3.46658C2.48075 12.2201 1.58158 11.4617 1.41908 10.4867L0.698666 6.17507C0.584916 5.5034 0.909918 4.64215 1.44617 4.21424L5.19992 1.20796C5.92576 0.62296 7.06867 0.628382 7.79992 1.21338L11.5537 4.21424C12.0845 4.64215 12.4095 5.5034 12.3012 6.17507L11.5808 10.4867C11.4183 11.4455 10.5028 12.2201 9.53326 12.2201ZM6.49451 1.59256C6.20742 1.59256 5.92033 1.67921 5.70908 1.84712L1.95534 4.8534C1.64659 5.10257 1.43534 5.65504 1.50034 6.04504L2.22076 10.3567C2.31826 10.9255 2.887 11.4076 3.46658 11.4076H9.53326C10.1128 11.4076 10.6816 10.9255 10.7791 10.3513L11.4995 6.03965C11.5645 5.64965 11.3478 5.09173 11.0445 4.84798L7.29076 1.84712C7.07409 1.67921 6.78701 1.59256 6.49451 1.59256Z" fill="white"/>
<path d="M6.5 8.80208C5.53042 8.80208 4.73959 8.01125 4.73959 7.04167C4.73959 6.07208 5.53042 5.28125 6.5 5.28125C7.46959 5.28125 8.26042 6.07208 8.26042 7.04167C8.26042 8.01125 7.46959 8.80208 6.5 8.80208ZM6.5 6.09375C5.98 6.09375 5.55209 6.52167 5.55209 7.04167C5.55209 7.56167 5.98 7.98958 6.5 7.98958C7.02 7.98958 7.44792 7.56167 7.44792 7.04167C7.44792 6.52167 7.02 6.09375 6.5 6.09375Z" fill="white"/>
</svg>
